<svg width="50" height="45" viewBox="0 0 50 45" fill="none" xmlns="http://www.w3.org/2000/svg">
<mask id="mask0_127_294" style="mask-type:luminance" maskUnits="userSpaceOnUse" x="2" y="0" width="46" height="45">
<path d="M47.5 0H2.5V45H47.5V0Z" fill="white"/>
</mask>
<g mask="url(#mask0_127_294)">
<path d="M42.5781 24.2789V10.4906C44.9596 10.1475 46.7969 8.0993 46.7969 5.625C46.7969 2.91164 44.5891 0.703125 41.875 0.703125C39.1609 0.703125 36.9531 2.91164 36.9531 5.625H3.20312V33.75H24.3327C24.6984 39.6253 29.5816 44.2969 35.5469 44.2969C41.7498 44.2969 46.7969 39.2498 46.7969 33.0469C46.7969 29.5038 45.1466 26.3426 42.5781 24.2789ZM41.875 2.10938C43.8135 2.10938 45.3906 3.68648 45.3906 5.625C45.3906 7.56352 43.8135 9.14062 41.875 9.14062C39.9365 9.14062 38.3594 7.56352 38.3594 5.625C38.3594 3.68648 39.9365 2.10938 41.875 2.10938ZM4.60938 7.03125H37.1605C37.3286 7.59234 37.5958 8.10914 37.9389 8.56758L33.6386 12.8679C33.363 12.7357 33.0592 12.6562 32.7344 12.6562C32.4095 12.6562 32.1058 12.7357 31.8309 12.8679L30.4141 11.4511C30.5455 11.1755 30.625 10.8717 30.625 10.5469C30.625 9.38391 29.6786 8.4375 28.5156 8.4375C27.3527 8.4375 26.4062 9.38391 26.4062 10.5469C26.4062 10.8717 26.4857 11.1755 26.6179 11.4504L23.0917 14.9766C22.8161 14.8451 22.5123 14.7656 22.1875 14.7656C21.0245 14.7656 20.0781 15.712 20.0781 16.875C20.0781 18.038 21.0245 18.9844 22.1875 18.9844C23.3505 18.9844 24.2969 18.038 24.2969 16.875C24.2969 16.5502 24.2174 16.2464 24.0852 15.9715L27.6114 12.4453C27.887 12.5768 28.1908 12.6562 28.5156 12.6562C28.8405 12.6562 29.1442 12.5768 29.4191 12.4446L30.8359 13.8614C30.7045 14.137 30.625 14.4408 30.625 14.7656C30.625 15.9286 31.5714 16.875 32.7344 16.875C33.8973 16.875 34.8438 15.9286 34.8438 14.7656C34.8438 14.4408 34.7643 14.137 34.6321 13.8621L38.9331 9.5618C39.5765 10.0441 40.3401 10.3711 41.1719 10.4913V23.3198C39.5146 22.3573 37.5972 21.7969 35.5469 21.7969C32.1859 21.7969 29.1723 23.2861 27.1094 25.631V22.5H22.8906V30.9375H24.5022C24.415 31.3966 24.3623 31.867 24.3327 32.3438H4.60938V7.03125ZM32.7344 14.0625C33.1218 14.0625 33.4375 14.3775 33.4375 14.7656C33.4375 15.1538 33.1218 15.4688 32.7344 15.4688C32.347 15.4688 32.0312 15.1538 32.0312 14.7656C32.0312 14.3775 32.347 14.0625 32.7344 14.0625ZM27.8125 10.5469C27.8125 10.1587 28.1282 9.84375 28.5156 9.84375C28.903 9.84375 29.2188 10.1587 29.2188 10.5469C29.2188 10.935 28.903 11.25 28.5156 11.25C28.1282 11.25 27.8125 10.935 27.8125 10.5469ZM22.8906 16.875C22.8906 17.2631 22.5749 17.5781 22.1875 17.5781C21.8001 17.5781 21.4844 17.2631 21.4844 16.875C21.4844 16.4869 21.8001 16.1719 22.1875 16.1719C22.5749 16.1719 22.8906 16.4869 22.8906 16.875ZM35.5469 38.6719C32.4454 38.6719 29.9219 36.1484 29.9219 33.0469C29.9219 29.9454 32.4454 27.4219 35.5469 27.4219C38.6484 27.4219 41.1719 29.9454 41.1719 33.0469C41.1719 36.1484 38.6484 38.6719 35.5469 38.6719ZM25.7031 27.6124C25.3663 28.2199 25.0879 28.8619 24.8671 29.5312H24.2969V23.9062H25.7031V27.6124ZM34.8438 23.239V26.0515C31.2958 26.4059 28.5156 29.4075 28.5156 33.0469C28.5156 34.0755 28.7434 35.0508 29.1421 35.9325L26.703 37.3409C26.0688 36.0415 25.7031 34.5874 25.7031 33.0469C25.7031 27.8564 29.744 23.6018 34.8438 23.239ZM35.5469 42.8906C32.162 42.8906 29.1709 41.1729 27.3991 38.5629L29.848 37.1489C31.1263 38.9194 33.2013 40.0781 35.5469 40.0781C37.8925 40.0781 39.9674 38.9194 41.2457 37.1489L43.6947 38.5629C41.9228 41.1729 38.9317 42.8906 35.5469 42.8906ZM44.3908 37.3409L41.9516 35.9325C42.3503 35.0508 42.5781 34.0755 42.5781 33.0469C42.5781 29.4075 39.798 26.4052 36.25 26.0515V23.239C41.3498 23.6018 45.3906 27.8564 45.3906 33.0469C45.3906 34.5874 45.025 36.0415 44.3908 37.3409Z" fill="#FEAA40"/>
<path d="M35.5469 28.8281C33.2202 28.8281 31.3281 30.7202 31.3281 33.0469C31.3281 35.3735 33.2202 37.2656 35.5469 37.2656C37.8735 37.2656 39.7656 35.3735 39.7656 33.0469C39.7656 30.7202 37.8735 28.8281 35.5469 28.8281ZM35.5469 35.8594C33.9958 35.8594 32.7344 34.598 32.7344 33.0469C32.7344 31.4958 33.9958 30.2344 35.5469 30.2344C37.098 30.2344 38.3594 31.4958 38.3594 33.0469C38.3594 34.598 37.098 35.8594 35.5469 35.8594Z" fill="#FEAA40"/>
<path d="M6.01562 8.4375H7.42188V9.84375H6.01562V8.4375Z" fill="#FEAA40"/>
<path d="M8.82812 8.4375H18.6719V9.84375H8.82812V8.4375Z" fill="#FEAA40"/>
<path d="M6.01562 11.25H7.42188V12.6562H6.01562V11.25Z" fill="#FEAA40"/>
<path d="M8.82812 11.25H18.6719V12.6562H8.82812V11.25Z" fill="#FEAA40"/>
<path d="M6.01562 14.0625H7.42188V15.4688H6.01562V14.0625Z" fill="#FEAA40"/>
<path d="M8.82812 14.0625H18.6719V15.4688H8.82812V14.0625Z" fill="#FEAA40"/>
<path d="M6.01562 16.875H7.42188V18.2812H6.01562V16.875Z" fill="#FEAA40"/>
<path d="M8.82812 16.875H18.6719V18.2812H8.82812V16.875Z" fill="#FEAA40"/>
<path d="M6.01562 30.9375H10.2344V23.9062H6.01562V30.9375ZM7.42188 25.3125H8.82813V29.5312H7.42188V25.3125Z" fill="#FEAA40"/>
<path d="M11.6406 30.9375H15.8594V25.3125H11.6406V30.9375ZM13.0469 26.7188H14.4531V29.5312H13.0469V26.7188Z" fill="#FEAA40"/>
<path d="M17.2656 30.9375H21.4844V19.6875H17.2656V30.9375ZM18.6719 21.0938H20.0781V29.5312H18.6719V21.0938Z" fill="#FEAA40"/>
</g>
</svg>
